<?xml version="1.0" encoding="UTF-8"?>
<svg id="icon" xmlns="http://www.w3.org/2000/svg" viewBox="0 0 480.63 297.27">
  <defs>
    <style>
      .cls-1 {
        fill: gray;
        stroke: #000;
        stroke-miterlimit: 10;
      }

      .cls-2 {
        fill: #8cc63f;
      }

      .cls-3 {
        fill: #ff5064;
      }

      .cls-4 {
        fill: #4d4d4d;
      }

      .cls-5 {
        fill: #00ecef;
      }

      .cls-6 {
        fill: #fff764;
      }

      .cls-7 {
        fill: #999;
      }

      .cls-8 {
        fill: #d2e0e8;
      }

      .cls-9 {
        fill: #ccc;
      }

      .cls-10 {
        fill: #ed1c24;
      }

      .cls-11 {
        fill: #00e590;
      }

      .cls-12 {
        fill: #ff0;
      }
    </style>
  </defs>
  <g id="icon-2" data-name="icon">
    <g>
      <rect x="59.5" y="32.77" width="362" height="221" rx="36" ry="36"/>
      <path d="M385.5,33.27c19.57,0,35.5,15.93,35.5,35.5v149c0,19.57-15.93,35.5-35.5,35.5H95.5c-19.57,0-35.5-15.93-35.5-35.5V68.77c0-19.57,15.93-35.5,35.5-35.5h290M385.5,32.27H95.5c-20.16,0-36.5,16.34-36.5,36.5v149c0,20.16,16.34,36.5,36.5,36.5h290c20.16,0,36.5-16.34,36.5-36.5V68.77c0-20.16-16.34-36.5-36.5-36.5h0Z"/>
    </g>
    <g>
      <rect class="cls-8" x="79.5" y="53.77" width="322" height="180"/>
      <path d="M401,54.27v179H80V54.27h321M402,53.27H79v181h323V53.27h0Z"/>
    </g>
    <g>
      <g>
        <rect class="cls-4" x="94.5" y="71.77" width="216" height="143"/>
        <path d="M310,72.27v142H95V72.27h215M311,71.27H94v144h217V71.27h0Z"/>
      </g>
      <g id="tab">
        <g>
          <rect x="94.5" y="71.77" width="216" height="16"/>
          <path d="M310,72.27v15H95v-15h215M311,71.27H94v17h217v-17h0Z"/>
        </g>
        <g>
          <circle class="cls-10" cx="107.5" cy="80.77" r="5"/>
          <path d="M107.5,76.27c2.48,0,4.5,2.02,4.5,4.5s-2.02,4.5-4.5,4.5-4.5-2.02-4.5-4.5,2.02-4.5,4.5-4.5M107.5,75.27c-3.04,0-5.5,2.46-5.5,5.5s2.46,5.5,5.5,5.5,5.5-2.46,5.5-5.5-2.46-5.5-5.5-5.5h0Z"/>
        </g>
        <g>
          <circle class="cls-12" cx="121.5" cy="80.77" r="5"/>
          <path d="M121.5,76.27c2.48,0,4.5,2.02,4.5,4.5s-2.02,4.5-4.5,4.5-4.5-2.02-4.5-4.5,2.02-4.5,4.5-4.5M121.5,75.27c-3.04,0-5.5,2.46-5.5,5.5s2.46,5.5,5.5,5.5,5.5-2.46,5.5-5.5-2.46-5.5-5.5-5.5h0Z"/>
        </g>
        <g>
          <circle class="cls-2" cx="135.5" cy="80.77" r="5"/>
          <path d="M135.5,76.27c2.48,0,4.5,2.02,4.5,4.5s-2.02,4.5-4.5,4.5-4.5-2.02-4.5-4.5,2.02-4.5,4.5-4.5M135.5,75.27c-3.04,0-5.5,2.46-5.5,5.5s2.46,5.5,5.5,5.5,5.5-2.46,5.5-5.5-2.46-5.5-5.5-5.5h0Z"/>
        </g>
      </g>
      <g id="lines-code">
        <rect class="cls-3" x="102" y="100.27" width="51" height="5" rx="2.5" ry="2.5"/>
        <rect class="cls-11" x="103" y="123.27" width="61" height="5" rx="2.5" ry="2.5"/>
        <rect class="cls-11" x="103" y="161.27" width="61" height="5" rx="2.5" ry="2.5"/>
        <rect class="cls-11" x="105" y="187.27" width="61" height="5" rx="2.5" ry="2.5"/>
        <rect class="cls-6" x="181" y="111.27" width="20" height="5" rx="2.5" ry="2.5"/>
        <rect class="cls-6" x="171" y="161.27" width="20" height="5" rx="2.5" ry="2.5"/>
        <rect class="cls-5" x="169" y="123.27" width="20" height="5" rx="2.5" ry="2.5"/>
        <rect class="cls-5" x="203" y="200.27" width="20" height="5" rx="2.5" ry="2.5"/>
        <rect class="cls-3" x="201" y="174.27" width="20" height="5" rx="2.5" ry="2.5"/>
        <rect class="cls-5" x="103" y="148.27" width="20" height="5" rx="2.5" ry="2.5"/>
        <rect class="cls-3" x="102" y="111.27" width="75" height="5" rx="2.5" ry="2.5"/>
        <rect class="cls-3" x="131" y="148.27" width="92" height="5" rx="2.5" ry="2.5"/>
        <rect class="cls-3" x="104" y="200.27" width="92" height="5" rx="2.5" ry="2.5"/>
        <rect class="cls-5" x="103" y="174.27" width="92" height="5" rx="2.5" ry="2.5"/>
        <rect class="cls-6" x="103" y="136.27" width="91" height="5" rx="2.5" ry="2.5"/>
        <rect class="cls-6" x="171" y="187.27" width="91" height="5" rx="2.5" ry="2.5"/>
      </g>
      <g id="phone">
        <g>
          <rect class="cls-4" x="295.5" y="90.92" width="76" height="114.85"/>
          <path d="M371,91.42v113.85h-75v-113.85h75M372,90.42h-77v115.85h77v-115.85h0Z"/>
        </g>
        <g id="tab-2" data-name="tab">
          <g>
            <rect x="296.5" y="90.92" width="76" height="12.68"/>
            <path d="M372,91.42v11.68h-75v-11.68h75M373,90.42h-77v13.68h77v-13.68h0Z"/>
          </g>
          <circle class="cls-10" cx="302" cy="97.27" r="3"/>
          <circle class="cls-12" cx="311" cy="97.27" r="3"/>
          <circle class="cls-2" cx="319" cy="97.27" r="3"/>
        </g>
        <g id="lines-code-2" data-name="lines-code">
          <rect class="cls-3" x="297.84" y="113.75" width="18.1" height="4.02" rx="2.01" ry="2.01"/>
          <rect class="cls-11" x="298.19" y="132.25" width="21.65" height="4.02" rx="2.01" ry="2.01"/>
          <rect class="cls-11" x="298.19" y="162.82" width="21.65" height="4.02" rx="2.01" ry="2.01"/>
          <rect class="cls-11" x="298.9" y="183.74" width="21.65" height="4.02" rx="2.01" ry="2.01"/>
          <rect class="cls-6" x="325.87" y="122.6" width="7.1" height="4.02" rx="2.01" ry="2.01"/>
          <rect class="cls-6" x="322.32" y="162.82" width="7.1" height="4.02" rx="2.01" ry="2.01"/>
          <rect class="cls-5" x="321.61" y="132.25" width="7.1" height="4.02" rx="2.01" ry="2.01"/>
          <rect class="cls-5" x="333.68" y="194.2" width="7.1" height="4.02" rx="2.01" ry="2.01"/>
          <rect class="cls-3" x="332.97" y="173.28" width="7.1" height="4.02" rx="2.01" ry="2.01"/>
          <rect class="cls-5" x="298.19" y="152.37" width="7.1" height="4.02" rx="2.01" ry="2.01"/>
          <rect class="cls-3" x="297.84" y="122.6" width="26.61" height="4.02" rx="2.01" ry="2.01"/>
          <rect class="cls-3" x="308.13" y="152.37" width="32.65" height="4.02" rx="2.01" ry="2.01"/>
          <rect class="cls-3" x="298.55" y="194.2" width="32.65" height="4.02" rx="2.01" ry="2.01"/>
          <rect class="cls-5" x="298.19" y="173.28" width="32.65" height="4.02" rx="2.01" ry="2.01"/>
          <rect class="cls-6" x="298.19" y="142.71" width="32.29" height="4.02" rx="2.01" ry="2.01"/>
          <rect class="cls-6" x="322.32" y="183.74" width="32.29" height="4.02" rx="2.01" ry="2.01"/>
        </g>
      </g>
      <path class="cls-7" d="M422,277.27H47c-8.28,0-15-6.72-15-15v-8.57h405v8.57c0,8.28-6.72,15-15,15Z"/>
      <path class="cls-1" d="M203,253.77s1.5,7,5.5,9,50.17,1,54.59,0,7.41-9,7.41-9h-67.5Z"/>
      <g>
        <g id="bubble">
          <polygon class="cls-9" points="360.91 102.26 379.23 67.46 399.85 96.74 360.91 102.26"/>
          <circle class="cls-9" cx="416" cy="58.27" r="48.5"/>
        </g>
        <g id="code">
          <polygon class="cls-10" points="412.98 82.1 407.41 82.1 426.96 41.27 432.54 41.27 412.98 82.1"/>
          <g id="arrow">
            <g>
              <polygon class="cls-10" points="380.28 61.02 377.62 59.41 400.89 46.09 403.55 47.7 380.28 61.02"/>
              <polygon class="cls-10" points="377.65 62.83 377.89 59.72 400.23 74.55 399.99 77.66 377.65 62.83"/>
            </g>
            <polygon class="cls-10" points="377.41 62.88 377.55 59.33 380.41 60.98 377.41 62.88"/>
          </g>
          <g id="arrow-2" data-name="arrow">
            <g>
              <polygon class="cls-10" points="455.07 65.3 457.92 64.06 436.65 47.75 433.79 48.98 455.07 65.3"/>
              <polygon class="cls-10" points="457.43 67.45 457.61 64.34 433.48 76.04 433.31 79.15 457.43 67.45"/>
            </g>
            <polygon class="cls-10" points="457.66 67.53 458 64 454.95 65.25 457.66 67.53"/>
          </g>
        </g>
      </g>
    </g>
  </g>
</svg>