<?xml version="1.0" encoding="UTF-8"?>
<svg id="icon" xmlns="http://www.w3.org/2000/svg" xmlns:xlink="http://www.w3.org/1999/xlink" viewBox="0 0 287.05 310.58">
  <defs>
    <style>
      .cls-1 {
        font-family: BrushScriptMT, 'Brush Script MT';
        font-size: 256.27px;
        stroke: #000;
        stroke-miterlimit: 10;
      }

      .cls-2 {
        fill: url(#linear-gradient);
      }
    </style>
    <linearGradient id="linear-gradient" x1="-28.52" y1="239.79" x2="286.31" y2="58.03" gradientUnits="userSpaceOnUse">
      <stop offset="0" stop-color="#bb00d4"/>
      <stop offset="1" stop-color="#0a0fb6"/>
    </linearGradient>
  </defs>
  <text class="cls-1" transform="translate(10.76 223.48)"><tspan x="0" y="0">J</tspan><tspan x="96.1" y="-14">H</tspan></text>
  <g>
    <path class="cls-2" d="M108.61,192.95l-33.29,18.77c-7.34,12.43-14.7,24.17-22.09,35.22-7.38,11.05-13.93,20.19-19.65,27.4-5.71,7.21-10.66,12.72-14.83,16.52-4.17,3.79-7.26,5.69-9.26,5.69-2.67,0-4.84-.9-6.51-2.69-1.67-1.79-2.5-3.9-2.5-6.32,0-9.01,5.07-20.29,15.2-33.85,10.14-13.56,26.17-27.97,48.11-43.23,9.51-18.27,17.35-34.87,23.52-49.8,6.17-14.93,10.89-27.7,14.14-38.29,3.25-10.59,5.52-19.1,6.82-25.53,1.29-6.42,1.94-10.51,1.94-12.26,0-3.59-1.38-5.38-4.13-5.38-2.25,0-5.57,1.29-9.95,3.88-4.38,2.59-9.11,6.44-14.2,11.57-5.09,5.13-9.84,11.07-14.27,17.83-4.42,6.67-8.45,14.16-12.08,22.46-3.63,8.3-6.42,15.95-8.38,22.96-1.96,7.01-2.94,12.64-2.94,16.89,0,1.08.17,3.46.5,7.13.75-1.17,1.67-2.58,2.75-4.25,1.08-1.67,2.46-3.38,4.13-5.13,1.67-1.75,3.42-3.21,5.26-4.38,1.08-.83,2.38-1.52,3.88-2.07,1.5-.54,2.25-.48,2.25.19,0,.5-2.38,3.65-7.13,9.45-4.75,5.8-8.88,11.03-12.39,15.7-2,2.67-4.67,5.17-8.01,7.51-3.34,2.34-6.05,3.5-8.13,3.5-2.5,0-4.15-1.17-4.94-3.5-.79-2.33-1.19-6.05-1.19-11.14,0-12.26,2.11-25.9,6.32-40.92,4.21-15.02,9.86-28.2,16.96-39.54,5.76-9.01,12.8-17.16,21.15-24.46,8.34-7.3,16.45-12.99,24.34-17.08,7.88-4.09,14.08-6.13,18.58-6.13,5.51,0,9.76,1.73,12.76,5.19,3,3.46,4.5,8.24,4.5,14.33,0,3-.36,6.38-1.06,10.14-.71,3.75-1.61,7.55-2.69,11.39-1.08,3.84-2.96,10.01-5.63,18.52-2.67,8.51-4.42,14.14-5.26,16.89-2.59,8.59-5.99,17.42-10.2,26.47-4.21,9.05-10.2,21.04-17.96,35.97l25.53-13.76v8.13Z"/>
    <path class="cls-2" d="M135.52,99.62l-26.9,14.14c-4.17,2.09-6.96,3.13-8.38,3.13-2.58,0-4.48-.81-5.69-2.44-1.21-1.63-1.81-4.15-1.81-7.57,0-3.92.83-8.45,2.5-13.58,1.67-5.13,3.59-8.9,5.76-11.32,2.25-2.5,7.53-5.94,15.83-10.32,8.3-4.38,18.29-8.78,29.97-13.2,11.68-4.42,23.86-8.09,36.54-11.01,12.68-2.92,24.28-4.38,34.79-4.38,7.34,0,12.76,1.17,16.27,3.5,3.5,2.34,5.25,8.51,5.25,18.52,0,5.42-1.86,11.45-5.57,18.08-3.71,6.63-8.18,13.08-13.39,19.33-5.21,6.26-14.87,17.35-28.97,33.29,7.51-1.17,13.01-1.92,16.52-2.25,3.5-.33,10.05-1.04,19.65-2.13,11.09-16.02,20.06-28.8,26.9-38.35,6.84-9.55,12.64-17.48,17.39-23.77,4.75-6.3,7.59-9.9,8.51-10.82,1.67-1.92,3.07-2.65,4.19-2.19,1.13.46,1.69,2.19,1.69,5.19,0,3.42-.36,6.22-1.06,8.38-.71,2.17-1.81,4.32-3.32,6.44-1.5,2.13-2.29,3.27-2.38,3.44-2.17,3.59-5.3,8.28-9.38,14.08-4.09,5.8-8.09,11.53-12.01,17.21-3.92,5.67-8.38,12.39-13.39,20.15,9.34.33,18.56,1.54,27.65,3.63l-22.52,30.53c-6.17-.83-14.39-1.25-24.65-1.25-2.5,5.01-4.44,8.93-5.82,11.76-1.38,2.84-2.55,5.53-3.5,8.07-.96,2.54-1.44,4.9-1.44,7.07,0,1.34.39,3.11,1.19,5.32.79,2.21,1.19,3.48,1.19,3.82,0,1.67-1.23,3.44-3.69,5.32-2.46,1.88-5.34,3.52-8.63,4.94-3.3,1.42-5.86,2.13-7.7,2.13-3.09,0-4.63-2.34-4.63-7.01,0-9.68,4.96-23.15,14.89-40.42-13.18,1.09-28.32,3.05-45.42,5.88-4.92,6.51-9.38,12.68-13.39,18.52-4,5.84-7.28,10.76-9.82,14.76-2.55,4-4.42,6.67-5.63,8.01-1.21,1.33-2.52,2-3.94,2-2.42,0-4.46-1.04-6.13-3.13-.75-.83-1.23-1.67-1.44-2.5-.21-.83-.31-1.75-.31-2.75v-2.63c0-1,.54-2.46,1.63-4.38,1.08-1.92,3.67-5.74,7.76-11.45,4.09-5.71,7.09-10.03,9.01-12.95-2.17.25-4.96.38-8.38.38-4.34,0-7.86-.79-10.57-2.38-2.71-1.58-4.07-3.54-4.07-5.88,0-2.67.71-5.53,2.13-8.57,1.42-3.04,3.25-5.59,5.51-7.63,2.25-2.04,4.5-3.07,6.76-3.07,1.5,0,3.29.46,5.38,1.38l32.28-8.01c18.02-19.52,31.45-34.95,40.29-46.3,8.84-11.34,13.26-18.65,13.26-21.9,0-1.83-.5-3.36-1.5-4.57-1-1.21-2.4-2.15-4.19-2.82-1.79-.67-3.86-1-6.19-1-2.75,0-7.11.75-13.08,2.25-5.97,1.5-13.08,3.71-21.33,6.63-8.26,2.92-18.56,6.97-30.91,12.14-9.18,3.75-13.76,6.13-13.76,7.13,0,1.17.63,1.92,1.88,2.25,1.25.33,2.86.58,4.82.75,1.96.17,2.94.46,2.94.88,0,.33-.48.79-1.44,1.38-.96.58-2.27,1.29-3.94,2.13Z"/>
  </g>
</svg>